<svg width="37" height="41" viewBox="0 0 37 41" fill="none" xmlns="http://www.w3.org/2000/svg">
<path fill-rule="evenodd" clip-rule="evenodd" d="M10.4635 1.10604C4.04608 2.33976 0.747603 7.229 0.747603 15.6137C0.725161 24.2041 9.22944 29.4817 17.9805 26.306L19.5962 25.712C20.9201 27.1285 21.1445 27.1285 19.7308 27.9966C18.6089 28.682 18.721 29.3903 19.439 29.6644C20.4039 30.03 26.2605 35.7645 27.0459 37.1582C29.9405 42.2987 37.1657 40.4938 36.6721 36.4728C36.4477 34.645 35.0788 32.5203 33.4632 31.0124C31.6682 29.3218 30.6584 27.9509 29.3346 25.3921C28.0555 22.9018 26.9113 22.3535 25.2507 23.3816C24.5327 23.8157 24.4653 23.8385 24.0839 23.473C23.2985 22.7647 23.3434 22.285 24.3083 20.7999C27.9883 15.0425 28.1902 10.0163 24.9366 6.0181C20.4039 0.44349 16.522 2.454 19.1698 4.1903C25.6097 8.3941 25.2732 16.9388 18.407 23.3816C14.5923 26.9685 6.91826 25.0494 4.94366 20.0231C1.82467 12.0268 6.96304 1.47159 15.2879 3.1622C18.1601 3.9162 19.3045 -0.584619 10.4635 1.10604ZM9.56602 6.7949C8.60116 7.6174 9.22944 8.3256 11.0245 7.069C12.2811 6.2009 12.887 6.0409 14.0314 6.3151C15.5348 6.6578 16.4547 6.2694 15.9835 5.4926C15.8264 5.2185 12.5279 4.2589 9.56602 6.7949ZM18.5639 6.4979C17.3523 6.4293 17.0381 7.1147 17.8684 8.0058C18.9005 9.1252 20.965 9.308 20.8527 8.2799C20.7854 7.5717 19.4839 6.5436 18.5639 6.4979ZM26.3727 25.6434C26.5522 26.3974 28.3249 29.0476 29.2673 30.03C30.4117 31.1952 30.9053 31.972 32.3862 33.6169C35.393 36.9754 31.8028 40.311 28.9755 36.1072C25.4078 30.8068 22.0868 29.139 22.1317 28.5221C22.199 27.7453 26.2156 25.0037 26.3727 25.6434Z" fill="#006B99"/>
</svg>
