<svg width="41" height="37" viewBox="0 0 41 37" fill="none" xmlns="http://www.w3.org/2000/svg">
<path fill-rule="evenodd" clip-rule="evenodd" d="M8.62386 0.52405C6.14179 0.93714 7.81251 2.6138 9.86489 2.9054C11.5833 3.1484 14.8767 3.1484 21.9648 3.1241C30.6041 3.0998 34.3033 3.197 34.8522 3.44C36.2125 4.0718 36.8093 6.5018 37.1912 13.087C37.3343 15.4197 37.6206 18.9189 37.8354 20.8628C38.5037 27.1078 37.8833 27.7153 30.0314 28.0312C27.0004 28.1527 23.0626 28.3957 21.2965 28.5658C13.0391 29.3677 7.90788 29.2218 5.04405 28.0555C2.65744 27.0835 2.77682 26.3059 2.70522 24.6778C2.53816 21.5189 2.60974 15.0795 2.91997 9.2233C3.18249 4.3148 3.49275 3.3428 5.04405 2.6138C5.99859 2.1764 5.66456 1.6661 4.47126 1.7147C2.68133 1.8119 1.29714 2.4194 1.03462 5.2625C0.700499 8.7616 -1.42361 27.9826 2.39489 29.6107C4.90075 30.6799 9.26824 31.7247 10.9865 31.7247C12.1798 31.7247 12.1322 33.0855 10.9389 33.45C8.19437 34.2519 10.1274 36.1959 13.755 36.3417C21.1056 36.5846 31.8453 35.9772 31.9407 35.2725C32.0362 34.5678 30.4849 32.964 29.6734 32.964C29.4109 32.964 29.2438 32.6481 29.2438 32.1864C29.2438 31.5303 29.2439 30.6069 29.9836 30.6069C33.1578 30.6069 34.8522 30.4611 35.8068 30.2424C40.4606 29.2218 40.6516 26.0143 40.6039 24.1433C40.4368 16.4889 39.0287 9.1747 39.0287 7.4495C39.0049 4.4606 37.2866 1.5203 33.6112 0.98574C32.1794 0.54835 11.0821 0.11095 8.62386 0.52405ZM21.0818 15.3954C20.7954 15.0795 18.027 11.9449 17.2633 11.143C16.3086 10.1467 15.3301 10.4626 13.2776 12.3822C12.2275 13.3785 10.5809 14.8608 9.60237 15.7113C6.21348 18.6273 5.95086 19.9394 8.74319 19.9394C9.69783 19.9394 10.1513 19.5992 12.9913 16.6347C16.6666 12.7953 16.3325 12.8196 19.5306 15.9786C21.6784 18.0926 21.4159 18.117 24.9003 15.3468C27.9074 12.5038 29.6257 10.6084 31.7974 8.3971C33.9454 6.2102 30.6518 5.2139 28.9097 6.7204C26.8572 8.4457 21.1056 15.3711 21.0818 15.3954ZM28.8143 14.2533C28.3847 15.3711 28.5995 22.8311 29.0768 23.2928C30.2462 24.4835 30.9622 21.932 30.8906 16.8777C30.8429 14.0832 29.5064 12.4066 28.8143 14.2533ZM14.996 17.2908C14.2563 19.2834 14.8767 24.7265 16.3802 24.4592C17.8837 24.1919 16.8576 18.1898 16.5234 17.3151C16.3086 16.6833 15.2347 16.659 14.996 17.2908ZM24.7093 17.8496C24.3036 18.3599 23.8979 22.1264 24.1605 23.147C24.6139 24.9694 26.4993 24.1676 26.4993 22.1507C26.4993 18.7731 25.6401 16.7076 24.7093 17.8496ZM11.1298 20.4497C10.7718 20.8142 10.9149 23.5358 11.3445 24.1189C12.1082 25.1881 12.7765 24.5078 12.7765 22.6367C12.7526 20.6927 11.9411 19.5993 11.1298 20.4497ZM19.3634 20.4497C18.7429 21.0815 19.1725 23.6815 19.9362 24.046C21.1534 24.6049 21.5591 23.0741 20.8192 20.6441C20.6999 20.2067 19.7214 20.0852 19.3634 20.4497ZM25.5208 31.0201C26.4755 31.2874 26.1175 32.1621 26.213 32.964L15.1869 33.1584C15.1869 33.0855 15.378 31.1658 15.378 31.2873C16.1416 31.263 23.1342 30.9715 24.0889 30.8986C24.4707 30.85 25.139 30.9229 25.5208 31.0201Z" fill="#006B99"/>
</svg>
