<svg width="55" height="56" viewBox="0 0 55 56" fill="none" xmlns="http://www.w3.org/2000/svg">
<path fill-rule="evenodd" clip-rule="evenodd" d="M23.5098 7.80416C23.0598 7.97916 22.8348 8.22913 22.8848 8.50412C22.9598 8.92911 13.785 21.3287 11.4351 28.8534C10.7101 31.2034 11.8851 31.5284 17.235 30.5034C20.4849 29.8784 20.3598 29.2285 18.2099 35.2783C16.61 39.7281 15.435 43.453 14.8851 45.7279C14.1351 48.7278 15.71 50.3027 19.6099 46.2279C21.2848 44.4779 25.0847 40.5531 33.9844 30.4034C41.5342 21.8037 41.5091 22.0287 35.5593 21.8037L31.8845 21.6537C33.6095 19.8288 40.0591 12.879 42.0341 11.254C44.009 9.6041 44.6341 8.92913 41.9842 8.55414C38.9093 8.10415 28.5096 7.92916 25.4597 7.65417C24.7597 7.57918 23.8848 7.65417 23.5098 7.80416ZM38.3342 10.3291L37.0342 11.404C33.8593 14.0039 27.5846 21.4787 27.5846 22.6286C27.5846 23.8786 29.6846 23.7536 35.1094 23.7536C27.1096 33.0283 20.8598 40.2531 20.7098 40.2531C20.6598 40.2531 21.2349 38.6031 22.0098 36.5532C24.9097 28.7785 25.0597 27.3285 23.0098 27.5785C19.4599 28.0035 15.985 28.4785 15.51 28.6284C15.0851 28.7534 15.36 28.0785 16.9599 25.0786C19.8099 19.6288 20.9598 18.0538 25.9597 9.7291C35.4843 10.1541 35.3843 10.1541 38.3342 10.3291Z" fill="#006B99"/>
</svg>
